<?xml version="1.0" encoding="UTF-8" standalone="no"?>
<!-- Created with Inkscape (http://www.inkscape.org/) -->

<svg
   width="1000"
   height="1000"
   viewBox="0 0 264.58334 264.58333"
   version="1.1"
   id="svg1"
   inkscape:version="1.3.2 (091e20e, 2023-11-25, custom)"
   sodipodi:docname="logo.svg"
   xmlns:inkscape="http://www.inkscape.org/namespaces/inkscape"
   xmlns:sodipodi="http://sodipodi.sourceforge.net/DTD/sodipodi-0.dtd"
   xmlns="http://www.w3.org/2000/svg"
   xmlns:svg="http://www.w3.org/2000/svg">
  <sodipodi:namedview
     id="namedview1"
     pagecolor="#ffffff"
     bordercolor="#000000"
     borderopacity="0.25"
     inkscape:showpageshadow="2"
     inkscape:pageopacity="0.0"
     inkscape:pagecheckerboard="0"
     inkscape:deskcolor="#d1d1d1"
     inkscape:document-units="mm"
     inkscape:zoom="0.73139029"
     inkscape:cx="451.87912"
     inkscape:cy="503.83496"
     inkscape:window-width="1920"
     inkscape:window-height="1017"
     inkscape:window-x="-8"
     inkscape:window-y="-8"
     inkscape:window-maximized="1"
     inkscape:current-layer="layer1" />
  <defs
     id="defs1">
    <inkscape:path-effect
       effect="skeletal"
       id="path-effect3"
       is_visible="true"
       lpeversion="1"
       pattern="M 0,4.9921385 C 0,2.236478 2.236478,0 4.9921385,0 7.7477989,0 9.984277,2.236478 9.984277,4.9921385 9.984277,7.7477989 7.7477989,9.984277 4.9921385,9.984277 2.236478,9.984277 0,7.7477989 0,4.9921385 Z"
       copytype="single_stretched"
       prop_scale="4.4139403"
       scale_y_rel="false"
       spacing="0"
       normal_offset="0"
       tang_offset="0"
       prop_units="false"
       vertical_pattern="false"
       hide_knot="false"
       fuse_tolerance="0" />
    <inkscape:path-effect
       effect="skeletal"
       id="path-effect2"
       is_visible="true"
       lpeversion="1"
       pattern="M 0,4.9921385 C 0,2.236478 2.236478,0 4.9921385,0 7.7477989,0 9.984277,2.236478 9.984277,4.9921385 9.984277,7.7477989 7.7477989,9.984277 4.9921385,9.984277 2.236478,9.984277 0,7.7477989 0,4.9921385 Z"
       copytype="single_stretched"
       prop_scale="4.4139403"
       scale_y_rel="false"
       spacing="0"
       normal_offset="0"
       tang_offset="0"
       prop_units="false"
       vertical_pattern="false"
       hide_knot="false"
       fuse_tolerance="0" />
    <inkscape:path-effect
       effect="skeletal"
       id="path-effect1"
       is_visible="true"
       lpeversion="1"
       pattern="M 0,4.9921385 C 0,2.236478 2.236478,0 4.9921385,0 7.7477989,0 9.984277,2.236478 9.984277,4.9921385 9.984277,7.7477989 7.7477989,9.984277 4.9921385,9.984277 2.236478,9.984277 0,7.7477989 0,4.9921385 Z"
       copytype="single_stretched"
       prop_scale="4.4139403"
       scale_y_rel="false"
       spacing="0"
       normal_offset="0"
       tang_offset="0"
       prop_units="false"
       vertical_pattern="false"
       hide_knot="false"
       fuse_tolerance="0" />
  </defs>
  <g
     inkscape:label="Layer 1"
     inkscape:groupmode="layer"
     id="layer1">
    <g
       id="g3"
       transform="translate(-6.2711562,-7.0874503)">
      <path
         style="fill:#fe94eb;fill-opacity:1;stroke:none;stroke-width:0.264583"
         d="m 77.777095,56.433624 c 0.06217,0.04686 0.121061,0.09792 0.176702,0.153102 0.05416,0.05369 0.105273,0.111315 0.153356,0.172787 0.09564,0.122271 0.179574,0.260158 0.251496,0.413028 0,0 10e-7,2e-6 10e-7,2e-6 v 0 c 0.142641,0.302362 0.240294,0.665269 0.292771,1.085817 v 0 c 0.102883,0.824401 0.03687,1.877901 -0.187691,3.147674 v 1e-6 c -0.429667,2.429992 -1.436037,5.67286 -2.909869,9.672244 v 0 c -2.639365,7.164363 -6.820343,16.740844 -11.437649,28.568428 v 0 l -5e-6,1.1e-5 v 0 c -3.548343,9.146642 -7.895168,20.744852 -10.198315,32.109092 v 0 c -0.909728,4.55163 -1.597598,9.12629 -1.553415,13.32974 v 0 c 0.106334,3.45072 0.381671,6.50909 1.352322,8.49962 v 0 c 2.203746,6.42326 5.982627,12.8024 10.920938,19.20455 v 0 c 4.856632,6.19342 10.788497,11.95117 17.617938,16.99358 v 0 c 6.362957,4.63691 13.318343,8.59365 20.578465,11.09773 v 0 c 6.49446,2.16469 13.07926,3.50273 18.91234,2.97008 v 0 c 9.83169,-0.49241 20.20155,-3.72698 30.63183,-8.61909 5.09134,-2.43707 10.07336,-5.32326 14.91423,-8.60868 5.35896,-3.63704 10.44423,-7.69503 15.21667,-12.04087 9.37246,-8.62204 17.28804,-18.13938 23.30663,-28.26142 v 0 c 5.90932,-10.11223 10.07369,-20.22464 11.51237,-30.0662 0.88526,-4.35436 0.32421,-9.57988 -0.89302,-14.83396 v 0 c -1.44564,-5.934895 -4.1577,-11.806164 -7.4406,-17.289413 v 0 C 201.15617,71.698199 191.65699,62.364836 181.27862,57.237908 v 0 c -1.20136,-0.898166 -3.35518,-1.443895 -5.89315,-1.944895 -3.0993,-0.54056 -6.59508,-0.602559 -10.11942,-0.503518 v 0 c -8.78901,0.27155 -18.09931,1.976653 -25.41586,3.37954 v 0 c -9.51016,1.843618 -17.26235,3.605739 -23.02184,4.506557 v 0 c -3.22512,0.504716 -5.82274,0.748278 -7.74387,0.661419 v 0 c -1.00554,-0.04543 -1.82985,-0.183609 -2.46264,-0.419277 v 0 c -0.32307,-0.120313 -0.5977,-0.267547 -0.8216,-0.44068 v 0 c -0.11264,-0.08764 -0.2132,-0.182514 -0.30076,-0.283769 v -1e-6 -4e-6 0 c -0.10547,-0.167027 -0.16263,-0.250478 -0.19347,-0.292103 -0.0303,-0.04084 -0.0352,-0.04133 -0.0356,-0.04125 0,0 0,0 0,0 0,0 0,0 0,0 0,0 0,0 0,0 0,0 0,0 0,0 -2e-5,5e-6 -1e-5,0 -1e-5,0 0,10e-7 -10e-6,7e-6 1e-5,-1.1e-5 0,0 0,0 0,0 0,0 0,0 0,0 0,0 0,0 0,0 0,0 0,0 0,0 3e-4,-3.09e-4 0.003,-0.0046 -0.0139,-0.05269 -0.0169,-0.04899 -0.0534,-0.143282 -0.1315,-0.324696 v 0 -5e-6 0 c -0.0333,-0.130215 -0.0525,-0.266827 -0.0579,-0.410838 v -10e-7 c -0.0116,-0.284842 0.0308,-0.594864 0.12605,-0.931267 v 0 c 0.1867,-0.659348 0.57798,-1.413069 1.17105,-2.257618 v 0 c 1.13261,-1.612809 3.00316,-3.547438 5.60195,-5.734936 v 0 c 4.54423,-3.827126 11.65447,-8.688472 20.98283,-13.492894 v 0 c 7.29621,-3.785445 16.95499,-8.026601 28.3378,-10.758463 v 0 c 4.53014,-1.093634 9.69289,-1.92421 15.41272,-2.073077 v 0 c 4.69334,-0.17932 10.13272,0.391276 16.07549,2.312596 v 0 c 17.44626,5.868615 34.19695,17.657582 46.83348,34.792715 v 0 c 5.79344,7.620624 10.88083,16.596399 14.4443,26.863802 3.25891,9.223209 4.94031,19.829426 3.96373,31.263206 -1.65384,16.36627 -6.88872,32.15879 -14.91006,46.50474 v 0 c -7.95765,14.41657 -18.33722,27.66726 -30.71013,39.22608 -6.24932,5.88296 -13.06077,11.37674 -20.40372,16.33553 -6.63123,4.47816 -13.5755,8.43865 -20.78142,11.83192 -14.7376,7.04038 -30.92526,11.33523 -47.68845,11.94029 v 0 c -13.17678,0.25108 -25.332397,-2.4766 -35.864729,-6.92298 v 0 c -11.688076,-4.85269 -21.902379,-11.43044 -30.559,-18.85186 v 0 c -9.352984,-7.94881 -17.195427,-17.00712 -23.43013,-26.67781 v 0 C 27.219528,184.5573 22.589551,173.76675 20.081007,162.5878 h 1e-6 c -1.602999,-7.63461 -1.517492,-14.55912 -0.557392,-20.48819 v 0 c 1.082174,-7.19586 2.995071,-13.61271 5.159468,-19.20272 v 0 c 5.414859,-14.04514 12.597237,-25.710311 18.781076,-34.458012 0,0 8e-6,-1e-5 8e-6,-1e-5 v 0 c 7.837356,-11.154747 15.392271,-19.52818 21.08954,-24.781384 v 0 c 3.24932,-2.997573 6.029187,-5.112444 8.237791,-6.338685 v 0 c 1.154354,-0.640878 2.149784,-1.039644 2.979034,-1.192971 v 0 c 0.422666,-0.07814 0.800234,-0.09314 1.133345,-0.04345 v 0 c 0,0 3e-6,0 3e-6,0 0.167872,0.02522 0.323887,0.06651 0.468457,0.124266 0.07258,0.029 0.142171,0.0621 0.208804,0.09932 0.06847,0.03824 0.133777,0.08079 0.195953,0.12766 z"
         id="path1"
         sodipodi:nodetypes="caaaac" />
      <path
         id="path2"
         style="fill:#a2defe;stroke-width:0.264583"
         d="m 179.31567,20.905701 c -3.8936,-0.209344 -10.37865,2.388756 -18.86913,7.370092 -9.86689,6.148191 -22.82163,16.415919 -36.10271,30.641024 -7.16449,7.577398 -14.94868,16.994735 -21.94905,28.239103 C 88.358182,61.3402 75.391333,45.815327 68.371537,48.475077 56.9973,52.784693 65.512295,103.11963 87.378129,160.82946 c 21.865841,57.70982 48.843271,101.04893 60.217511,96.73931 7.61672,-2.88591 6.27733,-26.45954 -1.98024,-59.01707 13.39131,2.85915 25.89743,3.55277 36.41277,3.41013 18.07049,-0.12202 33.20763,-2.5317 43.60509,-5.43532 5.8358,-1.62636 10.37701,-3.45392 13.46377,-5.34025 1.6009,-0.97838 2.80914,-1.96739 3.60547,-2.95847 0.4043,-0.50321 0.70199,-1.00297 0.88987,-1.50275 0.0702,-0.5774 0.13088,-0.91527 0.17208,-1.12552 0.0144,-0.18747 0.0286,-0.28306 0.0393,-0.33176 0.005,-0.0244 0.01,-0.0369 0.0186,-0.0439 -2.4e-4,-0.003 -7.6e-4,-0.009 -5.2e-4,-0.006 0,0.003 3.2e-4,-0.003 -0.006,-0.006 -0.004,-0.006 -0.0101,-0.0175 -0.0191,-0.0408 -0.0178,-0.0465 -0.0461,-0.13914 -0.0879,-0.32246 -0.0712,-0.20441 -0.17629,-0.52462 -0.32712,-1.08883 -0.25005,-0.46697 -0.60358,-0.92618 -1.05575,-1.37252 -0.89002,-0.87856 -2.16798,-1.72483 -3.79976,-2.53732 -3.14683,-1.56698 -7.63243,-3.03679 -13.22504,-4.47931 -10.15216,-2.62031 -23.94706,-5.09088 -39.83529,-8.54883 -12.44409,-2.77932 -27.29078,-6.08979 -39.36504,-11.61428 -4.71516,-2.21077 -8.96746,-4.40708 -11.81582,-6.96237 -2.15362,-2.07386 -3.8989,-3.83884 -4.11189,-5.07359 -0.2568,-0.42325 -0.44519,-0.97145 -0.58188,-1.6278 -0.32662,-1.56748 -0.35547,-3.75362 -0.32297,-6.17069 0.18593,-4.3187 1.68533,-9.38585 3.51503,-14.78204 4.7617,-13.66022 13.23231,-27.735284 20.35844,-39.57743 9.04422,-14.892401 17.35231,-27.476929 22.88181,-37.336223 6.60598,-11.053744 9.09947,-18.774948 6.29987,-21.610567 v -5.17e-4 c -0.70032,-0.709336 -1.71021,-1.090871 -3.00808,-1.160652 z" />
    </g>
  </g>
</svg>
